<svg id="Layer_1" data-name="Layer 1" xmlns="http://www.w3.org/2000/svg" viewBox="0 0 696.75752 304.87279">
  <title>Blue-Horizontal-01</title>
  <path d="M240.946,161.49542c-1.0973,35.20186-23.6751,53.76017-33.10006,58.67664-9.18195,4.75593-18.99281,9.16132-36.5687,9.16132,0,0-6.50719-2.40521-13.82152-9.94048-7.44836-7.67075-15.74363-20.65568-18.89412-41.8313-4.80012-32.259,25.32324-65.99833,42.27759-82.18235,5.105-4.87524,9.017-8.15829,10.4221-9.32775,6.0668-5.05641,19.00017-17.02652,23.88866-14.68316,0,0,2.65414-.15171,6.82829,8.01837C226.15088,87.55678,242.0418,126.29355,240.946,161.49542Z" style="fill: #007397"/>
  <path d="M207.09917,198.33365c-5.62346,8.03751-10.90427,16.61768-24.06,24.2531,0,0-11.22725,2.11-25.58342-3.19385-7.44836-7.67075-15.74363-20.65568-18.89412-41.8313-4.80012-32.259,25.32324-65.99833,42.27759-82.18235,9.64147,10.13932,19.47738,22.39368,26.36162,35.58628C223.49381,162.18914,212.72262,190.29466,207.09917,198.33365Z" style="fill: #00465b"/>
  <path d="M130.91413,71.36863s-2.65447-.15267-6.82758,8.01774-20.06452,46.90718-18.96772,82.10905,24.25832,54.42532,33.099,58.67675,17.84894,8.95205,33.05939,9.16121c0,0,29.98086-9.79659,36.22545-51.7716s-46.63313-86.45445-52.69995-91.5103S135.80237,69.02557,130.91413,71.36863Z" style="fill: #45cfe2"/>
  <g>
    <path d="M290.90044,173.8252l-6.49609.001-18.2295-47.97265,9.28418.001,12.60352,35.00879,12.957-35.00976h9.11426Z" style="fill: #007397"/>
    <path d="M323.87212,120.22754h-8.54785v-9.89941h8.54785Zm-8.54785,53.59863V125.85352h8.54785v47.97265Z" style="fill: #007397"/>
    <path d="M373.02251,173.82617v-5.88769a22.70392,22.70392,0,0,1-7.45117,5.21191,21.83377,21.83377,0,0,1-8.67481,1.76563,24.62006,24.62006,0,0,1-25.17383-25.29395,25.859,25.859,0,0,1,1.78809-9.61621,24.2467,24.2467,0,0,1,5.10254-7.96,23.16828,23.16828,0,0,1,7.87207-5.582,25.082,25.082,0,0,1,9.834-1.83106,22.4325,22.4325,0,0,1,16.70313,7.02149V110.32813h8.63574v63.498Zm-32.35938-24.292a16.77853,16.77853,0,0,0,4.81934,12.21191,15.8633,15.8633,0,0,0,11.79688,4.92774,15.29031,15.29031,0,0,0,11.208-4.97168,15.99058,15.99058,0,0,0,4.88477-11.55664,16.91194,16.91194,0,0,0-4.81934-12.08106,15.28565,15.28565,0,0,0-11.44824-5.05859,16.37893,16.37893,0,0,0-16.44141,16.52832Z" style="fill: #007397"/>
    <path d="M386.8477,125.85352l9.30274-.00489,12.94824,35.74219,14.04688-35.73144,9.27636-.00586-25.8164,63.543-9.12989-.00683,6.68555-16.917Z" style="fill: #007397"/>
    <path d="M476.20708,173.82617v-5.88769a22.66438,22.66438,0,0,1-7.43555,5.21191,21.74948,21.74948,0,0,1-8.65722,1.76563,24.27,24.27,0,0,1-17.94629-7.2168,24.60377,24.60377,0,0,1-7.17383-18.07715,25.85882,25.85882,0,0,1,1.78809-9.61621,24.24667,24.24667,0,0,1,5.10253-7.96,23.16828,23.16828,0,0,1,7.87207-5.582,25.08206,25.08206,0,0,1,9.834-1.83106,23.24056,23.24056,0,0,1,9.0498,1.72266,22.61493,22.61493,0,0,1,7.56641,5.29883v-5.80078h8.72266v47.97265Zm-32.27246-24.292a16.77852,16.77852,0,0,0,4.81933,12.21191,15.86333,15.86333,0,0,0,11.79688,4.92774,15.29034,15.29034,0,0,0,11.208-4.97168,15.99057,15.99057,0,0,0,4.88476-11.55664,16.912,16.912,0,0,0-4.81933-12.08106,15.28566,15.28566,0,0,0-11.44824-5.05859,16.37891,16.37891,0,0,0-16.44141,16.52832Z" style="fill: #007397"/>
    <path d="M494.96,173.82617v-63.498h8.54785v63.498Z" style="fill: #007397"/>
    <path d="M552.57134,173.82617v-5.88769a22.66438,22.66438,0,0,1-7.43555,5.21191,21.74953,21.74953,0,0,1-8.65723,1.76563,24.27,24.27,0,0,1-17.94628-7.2168,24.60377,24.60377,0,0,1-7.17383-18.07715,25.859,25.859,0,0,1,1.78808-9.61621,24.24686,24.24686,0,0,1,5.10254-7.96,23.16828,23.16828,0,0,1,7.87207-5.582,25.08206,25.08206,0,0,1,9.834-1.83106,23.24063,23.24063,0,0,1,9.0498,1.72266,22.61493,22.61493,0,0,1,7.56641,5.29883v-5.80078H561.294v47.97265Zm-32.27246-24.292a16.77852,16.77852,0,0,0,4.81933,12.21191,15.86331,15.86331,0,0,0,11.79688,4.92774,15.29034,15.29034,0,0,0,11.208-4.97168,15.99061,15.99061,0,0,0,4.88476-11.55664,16.912,16.912,0,0,0-4.81933-12.08106,15.28568,15.28568,0,0,0-11.44825-5.05859,16.37891,16.37891,0,0,0-16.4414,16.52832Z" style="fill: #007397"/>
    <path d="M579.87212,120.22754h-8.54785v-9.89941h8.54785Zm-8.54785,53.59863V125.85352h8.54785v47.97265Z" style="fill: #007397"/>
  </g>
</svg>
